<svg xmlns="http://www.w3.org/2000/svg" id="Layer_1" enable-background="new 0 0 64 64" viewBox="0 0 64 64"><path fill="#ecece9" d="M45.85,32c0,4.16-1.83,7.89-4.74,10.42c-1.69,1.48-3.74,2.55-6,3.07c-1,0.24-2.04,0.36-3.12,0.36
			c-1.35,0-2.66-0.2-3.89-0.56c-1.58-0.46-3.04-1.2-4.33-2.15c-1.26-0.94-2.37-2.08-3.25-3.38c-1.45-2.14-2.31-4.69-2.37-7.45
			c0-0.1,0-0.21,0-0.31c0-7.65,6.2-13.85,13.85-13.85C39.65,18.15,45.85,24.35,45.85,32z"/><path fill="#59b3e4" d="M45.85 32c0-2.78-.82-5.37-2.23-7.53 0 0-.79 1.15-.64 1.9.15.74 1.02.8.93 1.34-.09.54-.73-.16-1.52 1.28-.79 1.43-.4 3.41.74 3.56C44.27 32.69 45.85 32 45.85 32zM19.96 36.66c-.05.55.82.55 1.02 1.28.16.59-.28 1.5-.45 1.82-1.45-2.13-2.31-4.69-2.37-7.45.53-.23 1.49-.58 2.27-.53 1.14.07 1.67 2.02.98 3.5C20.7 36.77 20.02 36.11 19.96 36.66zM35.64 18.63c1.61.44 3.11 1.16 4.43 2.11 0 0-1.61-.26-2.21.28-.61.54-1.5 1.83-2.21 0C34.92 19.19 35.64 18.63 35.64 18.63zM28.11 45.29c-1.58-.46-3.04-1.2-4.33-2.15.34.05 1.6.21 2.13-.25.62-.53 1.53-1.8 2.21.05C28.71 44.53 28.25 45.15 28.11 45.29zM21.59 22.87c2.54-2.89 6.26-4.72 10.41-4.72 0 0-.94.57.84 1.53 1.78.96.96 1.41.59 1.71-.37.3-1.01-.59-1.43-1.19-.42-.59-2.23-1.51-3.61-1.01-1.38.49-2.57.86-2.37 1.32.2.46 2.57-.43 3.46-.38.89.05.59.59-.25 1.24-.84.64-.94 1.43-.05 1.93.89.49 1.98.54 2.23.25.25-.3-.45-2.23 1.24-1.38 1.68.84 3.07 1.34 1.68 2.57-1.38 1.24-2.97 2.62-3.02 3.41-.05.79.49 1.43.2 1.48-.3.05-.57-.32-.77-.59-.2-.27-1.11-.37-1.56-.2-.45.17-1.29.84-.82 1.48.47.64 1.11.35 1.76.64.64.3 1.24 1.43 1.12 1.68-.12.26-.67-.07-1.12-.94-.45-.87-1.29-.3-1.88-.45-.59-.15-1.04-.25-1.63-1.29-.59-1.04-1.82-1.33-2.32-1.93-1.44-1.72-1.34-3.02-1.63-3.61C22.36 23.84 21.59 22.87 21.59 22.87zM36.11 36.43c0 0-1.34-.66-1.81-1.52-.47-.86-.48-1.13-1.46-1.76-.98-.63-1.22-1.4-.09-2.3 1.13-.9 3.07-2.29 3.88-2.62.81-.33 1.72-.52 2.35-1.34.62-.82.92-1.34.46-1.94 0 0 .62-.67.98.63.36 1.3-.69 2.28-1.09 2.92-.4.64-1.54 2.59-1.5 3.19.04.6.99 1.32.87 2.49C38.57 35.34 37.31 37.24 36.11 36.43zM41.11 42.42c-1.69 1.48-3.74 2.55-6 3.07-1.13-.29-2.43-1.23-1.84-2.28 0 0 .53-1.39 1.35-1.94.82-.54 1.08-.57 1.62-1.6.54-1.03 1.29-1.34 2.28-.29C39.33 40.21 40.48 41.53 41.11 42.42z"/><g><path fill="#727373" d="M43.77 18.12c.06 0 .12-.02.16-.07.06-.06.14-.09.22-.09.09 0 .17.03.23.09.12.12.12.33 0 .45-.09.09-.09.24 0 .33.04.04.1.07.16.07.06 0 .12-.02.16-.07.06-.06.14-.09.23-.09.08 0 .16.03.22.09.12.12.12.33 0 .45-.04.04-.07.1-.07.16 0 .06.02.12.07.16.04.04.1.07.16.07.06 0 .12-.02.16-.07.06-.06.14-.09.23-.09.08 0 .16.03.22.09.12.12.12.33 0 .45-.04.04-.07.1-.07.16 0 .06.02.12.07.16.04.04.1.07.16.07.06 0 .12-.02.16-.07.15-.15.23-.34.23-.55 0-.21-.08-.41-.23-.55-.15-.15-.34-.23-.55-.23 0-.2-.08-.4-.23-.55-.15-.15-.34-.23-.55-.23 0-.2-.08-.4-.23-.55-.15-.15-.34-.23-.55-.23-.21 0-.41.08-.55.23-.09.09-.09.24 0 .33C43.65 18.09 43.71 18.12 43.77 18.12zM44.72 17.28c.06 0 .12-.02.16-.07.06-.06.13-.09.21-.09.08 0 .15.03.21.09.11.11.11.3 0 .41-.04.04-.07.1-.07.16 0 .06.02.12.07.16.04.04.1.07.16.07.06 0 .12-.02.16-.07.06-.06.13-.09.21-.09.08 0 .15.03.21.09.06.06.09.13.09.21s-.03.15-.09.21c-.09.09-.09.24 0 .33.04.04.1.07.16.07.06 0 .12-.02.16-.07.06-.06.13-.09.21-.09s.15.03.21.09c.11.11.11.3 0 .41-.09.09-.09.24 0 .33.04.04.1.07.16.07.06 0 .12-.02.16-.07.3-.3.3-.78 0-1.07-.14-.14-.32-.22-.52-.22 0-.19-.08-.38-.22-.52-.14-.14-.32-.22-.52-.22 0-.19-.08-.38-.22-.52-.14-.14-.33-.22-.54-.22s-.39.08-.54.22c-.09.09-.09.24 0 .33C44.6 17.26 44.66 17.28 44.72 17.28zM12.38 28.69l.04.01h.02c.1 0 .2-.07.22-.17.02-.06.01-.12-.02-.18-.03-.05-.08-.09-.14-.11-.17-.05-.27-.22-.22-.39.04-.14.16-.24.31-.24.03 0 .06 0 .08.01.07.02.13.03.2.03.14 0 .27-.05.38-.11 0 0 0 0 0 .01.1.18.27.31.47.36.07.02.13.03.2.03.35 0 .66-.24.76-.58.05-.2.03-.41-.08-.59-.1-.18-.27-.31-.47-.36-.07-.02-.13-.03-.2-.03-.14 0-.27.05-.38.11-.1-.18-.27-.31-.48-.37-.08-.02-.15-.07-.19-.15-.04-.07-.05-.16-.03-.24.04-.14.16-.24.31-.24.03 0 .06 0 .14.02.1 0 .2-.07.22-.17.03-.12-.04-.25-.16-.28-.07-.02-.13-.03-.2-.03-.35 0-.66.24-.76.58-.11.42.14.85.55.96.17.05.27.22.23.39-.04.14-.16.24-.31.24-.03 0-.06 0-.08-.01-.07-.02-.13-.03-.2-.03-.35 0-.66.24-.76.58-.05.2-.03.41.08.59C12.01 28.51 12.18 28.64 12.38 28.69zM14.02 26.85c.08.02.15.07.19.15.04.07.05.16.03.24-.04.14-.16.24-.31.24-.03 0-.06 0-.08-.01-.17-.05-.27-.22-.23-.39.04-.14.16-.24.31-.24C13.96 26.84 13.99 26.84 14.02 26.85zM20.14 17.57c-.06 0-.12.02-.16.07-.09.09-.09.24 0 .33.11.11.17.26.17.42s-.06.31-.17.42c-.11.11-.26.17-.42.17s-.31-.06-.42-.17l-1.75-1.75c-.04-.04-.1-.07-.16-.07-.06 0-.12.02-.16.07-.09.09-.09.24 0 .33l1.75 1.75c0 0 0 0 0 0 .11.11.17.26.17.42 0 .16-.06.31-.17.42-.11.11-.26.17-.42.17s-.31-.06-.42-.17c-.04-.04-.1-.07-.16-.07-.06 0-.12.02-.16.07-.04.04-.07.1-.07.16 0 .06.02.12.07.16.2.2.46.31.75.31.28 0 .55-.11.75-.31.23-.23.34-.55.3-.86.04 0 .08.01.12.01.28 0 .55-.11.75-.31.2-.2.31-.46.31-.75 0-.28-.11-.55-.31-.75C20.26 17.59 20.2 17.57 20.14 17.57zM39.06 12.29c-.14-.04-.28-.05-.42-.05-.65 0-1.23.39-1.48.98l-.17-.05c.09-.79-.4-1.54-1.24-1.76-.1 0-.2.07-.22.17-.03.12.04.25.16.28.3.08.54.27.7.54.12.2.17.43.15.65l-.48-.13c-.1 0-.2.07-.22.17-.02.06-.01.12.02.18.03.05.08.09.14.11l.41.11c-.19.38-.58.64-1.01.64-.1 0-.2-.01-.36-.05-.1 0-.2.07-.22.17-.03.12.04.25.16.28.14.04.28.06.42.06.65 0 1.23-.39 1.48-.98l.17.05c-.04.34.02.69.2 1 .22.37.56.64.98.75l.04.01h.02c.1 0 .2-.07.22-.17.02-.06.01-.12-.02-.18-.03-.05-.08-.09-.14-.11-.54-.14-.88-.65-.85-1.18l.42.11.04.01h.02c.1 0 .2-.07.22-.17.02-.06.01-.12-.02-.18-.03-.05-.08-.09-.14-.11l-.41-.11c.19-.38.58-.64 1.02-.64.1 0 .2.01.36.05.1 0 .2-.07.22-.17.02-.06.01-.12-.02-.18C39.17 12.34 39.12 12.3 39.06 12.29zM49.74 28.94c.03.1.12.17.22.17l.06-.01c.12-.03.2-.16.16-.28l-.85-3.19c-.03-.1-.11-.16-.26-.16-.01 0-.02 0-.02 0-.12.03-.2.16-.16.28L49.74 28.94zM49.97 26.78c.03.1.12.17.22.17.1 0 .19-.07.22-.16.05-.17.18-.29.35-.34.04-.01.09-.02.13-.02.23 0 .43.15.48.37.07.27-.09.54-.35.61-.04.01-.09.02-.13.02-.13 0-.25-.05-.34-.14-.04-.04-.1-.06-.16-.06l-.09.02-.03.02c-.09.05-.13.16-.1.26l.33 1.22c.03.1.12.17.22.17l.06-.01c.06-.02.11-.05.14-.11.03-.05.04-.12.02-.18l-.2-.74c.05.01.1.01.15.01.08 0 .17-.01.25-.03.25-.07.46-.23.59-.45.13-.22.16-.48.1-.73-.11-.42-.5-.72-.93-.72-.08 0-.17.01-.25.03-.13.04-.25.1-.36.18l-.2-.74c-.03-.1-.11-.16-.26-.16-.01 0-.02 0-.02 0-.12.03-.2.16-.16.28L49.97 26.78zM14.64 35.03l0-.07-.01-.02c-.02-.09-.1-.16-.22-.17-.12 0-.22.09-.23.2-.04.31-.05.62-.03.92l-1.93.52c-.13-.27-.3-.53-.49-.78-.04-.06-.11-.09-.18-.09-.05 0-.1.02-.14.05-.05.04-.08.09-.09.15-.01.06.01.12.05.17.68.89.95 1.91.81 3.02-.01.06.01.12.05.17.04.05.09.08.15.09l.03 0c.12 0 .22-.09.23-.2.04-.31.05-.62.03-.92l1.93-.52c.13.27.3.53.49.78.04.06.11.09.18.09.05 0 .1-.02.14-.05.1-.08.12-.22.04-.32C14.76 37.16 14.49 36.15 14.64 35.03zM12.52 37.22c-.03-.13-.08-.25-.12-.37l1.8-.48c.04.26.11.51.2.76l-1.8.48C12.58 37.47 12.56 37.34 12.52 37.22zM25.57 13.99l.63.37-.55.96c-.03.05-.04.12-.02.18.02.06.05.11.11.14l.08.03h.03l.04 0 .02 0c.06-.02.11-.05.14-.11l.55-.96.63.37.08.03h.03l.06-.01c.06-.02.11-.05.14-.11.03-.05.04-.12.02-.18-.02-.06-.05-.11-.11-.14l-.63-.37 1.15-1.99.02.64c0 .13.11.22.23.22l.06-.01c.11-.03.18-.12.17-.23l-.06-1.45c0-.01 0-.01-.01-.02 0-.02-.01-.05-.02-.07 0-.01-.01-.02-.01-.03-.02-.03-.04-.05-.07-.07l-.08-.03h-.03 0c0 0 0 0 0 0l-.08.01-1.31.69c-.05.03-.1.08-.11.14-.02.06-.01.12.02.18.04.08.12.12.2.12l.08-.01.6-.31-1.15 1.99-.63-.37-.08-.03h-.03c-.08 0-.16.04-.2.12-.03.05-.04.12-.02.18C25.48 13.9 25.51 13.95 25.57 13.99zM52.28 36.91c-.19-.38-.57-.62-.99-.64.02-.19 0-.38-.1-.55-.12-.2-.31-.35-.53-.41-.07-.02-.15-.03-.23-.03-.39 0-.74.27-.84.65-.12.47.15.95.62 1.07.07.02.15.03.23.03.24 0 .46-.11.62-.27.06-.02.13-.03.19-.03.26 0 .5.15.62.39.16.33.03.73-.29.91-.09.05-.19.07-.29.07-.23 0-.47-.14-.64-.35-.3-.46-.6-.66-1.08-.9-.11-.05-.22-.08-.32-.08-.04 0-.08 0-.12.01-.27.05-.48.25-.55.51-.1.38.12.77.56.88.1 0 .2-.07.22-.17.02-.06.01-.12-.02-.18-.03-.05-.08-.09-.14-.11-.06-.02-.12-.06-.15-.11-.03-.06-.04-.12-.02-.19.02-.09.1-.16.22-.18.04 0 .08.01.12.03.43.21.65.37.91.75.27.34.64.54 1.01.54.18 0 .35-.04.51-.13C52.33 38.14 52.55 37.46 52.28 36.91zM50.33 36.55c-.11-.03-.19-.1-.25-.19-.05-.1-.07-.21-.04-.31.05-.18.21-.3.4-.3.04 0 .07 0 .11.01.11.03.19.1.25.19.05.1.07.21.04.31-.05.18-.21.3-.4.3C50.4 36.56 50.36 36.56 50.33 36.55zM18.45 43.66c-.01 0-.01.01-.02.01-.03 0-.05-.02-.08-.02-.23 0-.44.09-.61.25-.16.16-.25.38-.25.61 0 .23.09.44.25.61.16.16.38.25.61.25.23 0 .44-.09.61-.25.18-.18.26-.42.24-.66.41.31.72.82.69 1.44-.01.13.09.24.22.24l.01 0c.12 0 .23-.1.23-.22.03-.62-.19-1.19-.63-1.63C19.38 43.94 18.94 43.72 18.45 43.66zM18.63 44.79c-.07.07-.17.12-.28.12-.11 0-.2-.04-.28-.12-.15-.15-.15-.4 0-.56.07-.07.17-.12.28-.12.11 0 .2.04.28.12C18.79 44.39 18.79 44.64 18.63 44.79zM18.42 45.86c-.23 0-.45.09-.61.25-.18.18-.26.42-.24.66-.41-.31-.72-.82-.69-1.44 0-.07-.02-.13-.07-.17-.04-.04-.1-.07-.16-.07-.12 0-.23.1-.23.22-.06 1.25.9 2.12 1.87 2.25l.03 0c.01 0 .01-.01.02-.01.03 0 .05.02.08.02.23 0 .44-.09.61-.25.33-.33.33-.88 0-1.21C18.86 45.95 18.65 45.86 18.42 45.86zM18.7 47c-.07.07-.17.12-.28.12-.11 0-.2-.04-.28-.11-.15-.15-.15-.4 0-.56.07-.07.17-.12.28-.12.11 0 .2.04.28.12.07.07.11.17.11.28C18.81 46.82 18.77 46.92 18.7 47zM47.9 45.33c-.06 0-.12.02-.16.07-.05.05-.11.07-.17.07-.06 0-.13-.02-.17-.07l0 0c0 0 0 0 0 0l-1.56-1.56c-.04-.04-.1-.07-.16-.07-.06 0-.12.02-.16.07-.04.04-.07.1-.07.16 0 .06.02.12.07.16l1.56 1.56c0 0 0 0 0 0 0 0 0 0 0 0 .05.05.07.11.07.17 0 .06-.03.13-.07.17-.05.05-.11.07-.17.07-.06 0-.13-.03-.17-.07l-1.56-1.56c-.04-.04-.1-.07-.16-.07-.06 0-.12.02-.16.07-.04.04-.07.1-.07.16 0 .06.02.12.07.16l1.56 1.56c.05.05.07.11.07.17s-.03.13-.07.17c-.05.05-.11.07-.17.07-.06 0-.13-.03-.17-.07l-1.22-1.22c-.13-.13-.31-.21-.5-.21-.12 0-.23.04-.34.1-.03-.09-.09-.17-.16-.24-.04-.04-.1-.07-.16-.07-.06 0-.12.02-.16.07-.09.09-.09.24 0 .33.09.09.09.25 0 .34-.04.04-.07.1-.07.16 0 .06.02.12.07.16.04.04.1.07.16.07.06 0 .12-.02.16-.07.05-.05.11-.07.17-.07.06 0 .13.03.17.07.04.04.1.07.16.07.06 0 .12-.02.16-.07.08-.08.08-.21.01-.3l1.21 1.21c.13.13.31.21.5.21.19 0 .37-.07.5-.21.13-.13.19-.29.2-.47.18-.01.34-.07.47-.2.13-.13.19-.29.2-.47.18-.01.34-.07.47-.2.09-.09.09-.24 0-.33C48.02 45.35 47.96 45.33 47.9 45.33zM38.95 51.45c-.01 0-.02 0-.03 0-.02.01-.04.01-.06.01-.11 0-.2-.07-.23-.18l-.57-2.12C38.03 49.07 37.95 49 37.8 49c-.01 0-.02 0-.02 0-.06.02-.11.05-.14.11-.03.05-.04.12-.02.18l.57 2.12c.03.13-.04.26-.17.29-.02.01-.04.01-.06.01-.11 0-.2-.07-.23-.18l-.57-2.12c-.03-.1-.11-.16-.26-.16-.01 0-.02 0-.02 0-.12.03-.2.16-.16.28l.57 2.12c.03.13-.04.26-.17.29-.02.01-.04.01-.06.01-.11 0-.2-.07-.23-.18l-.2-.74c0 0 0 0 0 0-.06-.23-.21-.66-.56-1.05.08-.23.2-.44.36-.63.08-.1.07-.24-.03-.33-.04-.03-.08-.05-.16-.05-.01 0-.03 0-.05 0-.05.01-.09.04-.12.07-.15.18-.28.38-.37.59-.19-.14-.39-.25-.62-.33l-.06-.01h-.02c-.1 0-.19.06-.22.15-.04.12.02.25.14.3.23.08.44.21.62.37-.1.51-.02.96.04 1.19.06.23.27.39.51.39.05 0 .09-.01.14-.02.02-.01.04-.02.06-.03l.07.24c.08.31.36.52.68.52.06 0 .12-.01.18-.02.18-.05.32-.16.41-.31.1.05.2.09.32.09.06 0 .12-.01.18-.02.17-.05.31-.16.41-.31.1.05.2.09.32.09.06 0 .12-.01.18-.02.12-.03.2-.16.16-.28C39.18 51.52 39.09 51.45 38.95 51.45zM36.16 51.14c.01.04-.01.07-.07.09-.03 0-.06-.02-.07-.05-.03-.11-.07-.31-.08-.55C36.06 50.84 36.13 51.03 36.16 51.14zM29.02 49.67c-.2-.35-.53-.6-.92-.71-.13-.03-.26-.05-.39-.05-.48 0-.91.23-1.19.58-.09-.1-.2-.19-.34-.22-.06-.02-.12-.02-.19-.02-.33 0-.61.22-.7.54-.1.39.13.78.51.89.06.02.12.02.19.02.03 0 .05-.01.08-.01l-.17.63c-.06.23-.03.46.09.66.12.2.31.35.53.41.07.02.15.03.23.03.17 0 .33-.06.47-.15.01.01.01.03.01.04.12.2.31.35.53.41.07.02.15.03.23.03.11 0 .22-.02.32-.06.06-.02.1-.07.13-.12.02-.06.03-.12 0-.18-.04-.09-.12-.15-.22-.15l-.06.01-.02.01c-.05.02-.1.03-.15.03-.04 0-.07 0-.11-.01-.11-.03-.2-.1-.25-.19-.05-.1-.07-.21-.04-.31l.34-1.27c.02-.06.01-.12-.02-.18-.03-.05-.08-.09-.2-.12-.1 0-.2.07-.22.17l-.34 1.27c-.05.18-.21.31-.4.31-.04 0-.07 0-.11-.01-.22-.06-.35-.29-.29-.51l.34-1.27c.12-.46.54-.78 1.02-.78.09 0 .18.01.27.04.27.07.5.25.64.49.02.04.05.09.06.13.04.09.12.14.21.14l.07-.01.02-.01c.06-.02.1-.07.13-.12.02-.06.02-.12 0-.18C29.09 49.8 29.06 49.73 29.02 49.67zM25.92 50.22c-.07-.02-.12-.06-.16-.12-.03-.06-.04-.13-.03-.2.03-.11.13-.19.25-.19.02 0 .05 0 .07.01.07.02.12.06.16.12.03.06.04.13.03.2-.03.11-.13.19-.25.19C25.96 50.23 25.94 50.23 25.92 50.22z"/><g><rect width="17.56" height="1.59" x=".28" y="31.2" fill="#89c553"/><rect width="17.55" height="1.59" x="3.36" y="42.67" fill="#89c553" transform="rotate(-30 12.135 43.47)"/><rect width="17.56" height="1.59" x="11.75" y="51.07" fill="#89c553" transform="rotate(-60.007 20.536 51.864)"/><rect width="1.59" height="17.56" x="31.21" y="46.15" fill="#89c553"/><rect width="1.59" height="17.56" x="42.67" y="43.08" fill="#89c553" transform="rotate(-30.065 43.466 51.86)"/><rect width="1.59" height="17.55" x="51.07" y="34.69" fill="#89c553" transform="rotate(-59.987 51.863 43.468)"/><rect width="17.56" height="1.59" x="46.16" y="31.2" fill="#89c553"/><rect width="17.55" height="1.59" x="43.09" y="19.73" fill="#89c553" transform="rotate(-30 51.863 20.533)"/><rect width="17.56" height="1.59" x="34.69" y="11.34" fill="#89c553" transform="rotate(-59.994 43.468 12.135)"/><rect width="1.59" height="17.56" x="31.21" y=".28" fill="#89c553"/><rect width="1.59" height="17.56" x="19.74" y="3.36" fill="#89c553" transform="rotate(-30.014 20.535 12.136)"/><rect width="1.59" height="17.55" x="11.34" y="11.75" fill="#89c553" transform="rotate(-59.987 12.135 20.53)"/><path fill="#89c553" d="M32,47.44c-2.72,0-5.39-0.72-7.73-2.07c-2.34-1.35-4.3-3.31-5.65-5.65c-1.35-2.34-2.07-5.01-2.07-7.73
						c0-2.72,0.72-5.39,2.07-7.73c1.36-2.34,3.32-4.3,5.66-5.65c2.34-1.35,5.01-2.07,7.72-2.07c2.72,0,5.39,0.72,7.72,2.07
						c2.34,1.35,4.29,3.3,5.65,5.65c1.35,2.34,2.07,5.01,2.07,7.73s-0.72,5.39-2.07,7.73c-1.36,2.34-3.32,4.3-5.66,5.65
						C37.39,46.73,34.72,47.44,32,47.44z M32,18.15c-2.44,0-4.83,0.64-6.93,1.85c-2.1,1.21-3.85,2.97-5.08,5.07
						c-1.21,2.09-1.85,4.49-1.85,6.93c0,2.44,0.64,4.83,1.85,6.93c1.22,2.1,2.98,3.86,5.07,5.07c2.09,1.21,4.49,1.85,6.93,1.85
						c2.44,0,4.83-0.64,6.92-1.85c2.1-1.21,3.85-2.97,5.08-5.07c1.21-2.09,1.85-4.49,1.85-6.93s-0.64-4.83-1.85-6.93
						c-1.22-2.1-2.98-3.86-5.08-5.07C36.84,18.79,34.44,18.15,32,18.15z"/><path fill="#89c553" d="M32,55.59C19,55.59,8.41,45,8.41,32C8.41,18.99,19,8.41,32,8.41c13.01,0,23.59,10.58,23.59,23.59
						C55.59,45,45.01,55.59,32,55.59z M32,10.01c-12.13,0-21.99,9.87-21.99,21.99c0,12.13,9.87,21.99,21.99,21.99
						c12.13,0,21.99-9.87,21.99-21.99C53.99,19.87,44.13,10.01,32,10.01z"/></g><g><path fill="#89c553" d="M32,64C14.35,64,0,49.64,0,32C0,14.35,14.35,0,32,0s32,14.35,32,32C64,49.64,49.65,64,32,64z M32,1.59
				C15.23,1.59,1.59,15.23,1.59,32c0,16.77,13.64,30.41,30.41,30.41c16.77,0,30.41-13.64,30.41-30.41
				C62.41,15.23,48.77,1.59,32,1.59z"/></g><g><path fill="#e4abbc" d="M40.6 8.16c0 .08 0 .14-.01.19-.01.05-.02.09-.03.13-.01.03-.03.05-.05.07-.02.01-.04.02-.06.02h-2.9c-.02 0-.04-.01-.06-.02-.02-.01-.04-.04-.05-.07-.01-.03-.03-.07-.03-.13-.01-.05-.01-.12-.01-.19 0-.08 0-.14.01-.2.01-.05.02-.1.03-.13.01-.03.03-.06.05-.07.02-.01.04-.02.06-.02h.98V4.33l-.84.47c-.06.03-.11.05-.15.05-.04.01-.07 0-.09-.02-.02-.02-.04-.06-.05-.12-.01-.06-.01-.14-.01-.24 0-.06 0-.12 0-.16 0-.04.01-.08.02-.11.01-.03.03-.05.04-.07.02-.02.04-.04.08-.06l1.13-.73c.01-.01.03-.02.05-.03.02-.01.05-.01.08-.02.03 0 .08-.01.13-.01.05 0 .12 0 .2 0 .1 0 .19 0 .25.01.06 0 .11.01.14.02.03.01.05.02.06.04.01.02.02.04.02.06v4.34h.86c.02 0 .05.01.07.02.02.01.04.04.05.07.01.03.03.08.03.13C40.6 8.02 40.6 8.08 40.6 8.16zM52.85 15.15c0 .08 0 .15-.01.2-.01.06-.02.1-.03.14-.01.04-.03.06-.05.07-.02.01-.05.02-.07.02h-3.02c-.06 0-.11-.01-.15-.02-.04-.01-.08-.03-.11-.06-.03-.03-.05-.08-.06-.14-.01-.06-.02-.14-.02-.23 0-.09 0-.17.01-.23.01-.06.02-.12.04-.17.02-.05.05-.1.08-.15.03-.05.08-.1.13-.16l.91-.97c.18-.19.33-.36.44-.52.11-.16.2-.3.26-.43.06-.13.1-.25.13-.36.02-.11.03-.21.03-.31 0-.09-.01-.17-.04-.25-.03-.08-.07-.15-.13-.21-.06-.06-.13-.11-.21-.14-.08-.03-.18-.05-.3-.05-.16 0-.3.02-.42.06-.12.04-.23.09-.32.14-.09.05-.17.1-.23.14-.06.04-.11.06-.15.06-.02 0-.05-.01-.06-.02-.02-.02-.03-.04-.04-.08-.01-.04-.02-.09-.03-.15-.01-.06-.01-.14-.01-.23 0-.06 0-.11.01-.16 0-.04.01-.08.02-.11.01-.03.02-.06.03-.08.01-.02.04-.05.07-.08.03-.03.1-.07.19-.12.09-.05.2-.1.33-.15.13-.05.28-.09.44-.12.16-.03.33-.05.5-.05.27 0 .51.03.72.1.2.07.37.16.51.29s.24.27.3.44c.07.17.1.35.1.55 0 .17-.02.34-.05.5-.03.16-.1.34-.2.53-.1.19-.25.4-.43.63-.19.23-.43.5-.74.81l-.61.63h2.07c.03 0 .05.01.08.02s.04.04.06.07c.02.03.03.08.04.13C52.85 15.01 52.85 15.07 52.85 15.15zM59.83 26.1c0 .26-.05.49-.15.7-.1.2-.24.37-.42.51-.18.14-.39.24-.64.31-.25.07-.52.11-.82.11-.18 0-.35-.01-.5-.04-.16-.03-.3-.06-.42-.1-.12-.04-.22-.08-.3-.12-.08-.04-.13-.07-.15-.09-.02-.02-.04-.05-.05-.07-.01-.03-.02-.06-.03-.1-.01-.04-.02-.08-.02-.14 0-.06-.01-.12-.01-.2 0-.13.01-.22.03-.27.02-.05.05-.08.1-.08.03 0 .07.02.14.05.07.04.15.08.25.12.1.04.22.08.36.12.14.04.29.05.47.05.15 0 .28-.02.39-.05.11-.04.21-.08.29-.15.08-.06.14-.14.18-.23.04-.09.06-.19.06-.3 0-.12-.02-.23-.07-.33-.05-.1-.12-.18-.21-.25-.09-.07-.21-.12-.35-.16-.14-.04-.31-.06-.5-.06h-.45c-.04 0-.06 0-.09-.01-.02-.01-.04-.03-.06-.06-.02-.03-.03-.07-.03-.12-.01-.05-.01-.12-.01-.2 0-.08 0-.14.01-.19.01-.05.02-.09.03-.12.01-.03.03-.05.06-.06.02-.01.05-.02.08-.02h.46c.16 0 .3-.02.42-.05.12-.04.22-.09.31-.16.08-.07.15-.15.19-.25.04-.1.06-.2.06-.32 0-.09-.01-.17-.04-.25-.03-.08-.07-.15-.13-.21-.06-.06-.13-.1-.23-.14-.09-.03-.2-.05-.32-.05-.14 0-.27.02-.4.06-.12.04-.24.09-.33.14-.1.05-.18.1-.25.14-.07.04-.12.07-.15.07-.02 0-.04 0-.06-.01-.02-.01-.03-.03-.04-.05-.01-.03-.02-.07-.02-.12-.01-.05-.01-.12-.01-.2 0-.07 0-.12 0-.17 0-.04.01-.08.02-.11.01-.03.02-.06.03-.08.01-.02.03-.05.06-.07.03-.03.08-.06.17-.12.08-.05.19-.1.32-.15.13-.05.27-.09.44-.12.17-.03.35-.05.54-.05.25 0 .48.03.68.09.2.06.36.15.49.26.13.11.24.25.3.41.07.16.1.35.1.55 0 .16-.02.31-.06.45-.04.14-.1.26-.18.37-.08.11-.18.2-.29.28-.12.08-.25.13-.41.17v.01c.18.02.35.07.49.14.15.07.27.16.37.27.1.11.18.23.23.37S59.83 25.94 59.83 26.1zM60.02 40.1c0 .14-.01.24-.04.31-.03.07-.07.11-.12.11H59.4v.95c0 .03-.01.05-.02.07-.02.02-.04.04-.09.05s-.09.02-.16.03c-.06.01-.15.01-.25.01-.1 0-.18 0-.25-.01-.07-.01-.12-.02-.16-.03-.04-.01-.07-.03-.08-.05-.01-.02-.02-.04-.02-.07v-.95h-2.01c-.04 0-.07 0-.1-.01-.03-.01-.05-.03-.08-.07-.02-.03-.04-.08-.04-.15-.01-.06-.01-.15-.01-.25 0-.09 0-.16.01-.23 0-.06.01-.12.02-.17.01-.05.02-.1.04-.15.02-.05.04-.09.07-.15l1.63-2.88c.01-.02.04-.05.07-.06.03-.02.08-.03.14-.04.06-.01.13-.02.22-.03.09-.01.2-.01.32-.01.14 0 .26 0 .35.01.1.01.18.02.23.03.06.01.1.03.13.05.03.02.04.05.04.08v3.16h.47c.04 0 .08.03.11.1C60.01 39.84 60.02 39.95 60.02 40.1zM58.37 37.26L58.37 37.26l-1.39 2.41h1.39V37.26zM52.81 51.96c0 .28-.05.54-.15.76-.1.22-.24.41-.42.56-.18.15-.4.27-.65.35-.25.08-.53.12-.84.12-.16 0-.32-.01-.46-.03-.15-.02-.28-.05-.39-.08-.12-.03-.21-.06-.29-.09-.07-.03-.12-.06-.15-.08-.02-.02-.04-.04-.05-.07-.01-.02-.02-.05-.03-.09-.01-.03-.01-.08-.01-.13 0-.05 0-.11 0-.18 0-.08 0-.14.01-.19.01-.05.01-.1.03-.13.01-.03.03-.06.04-.07.02-.01.04-.02.06-.02.03 0 .07.02.12.05.06.03.13.07.22.1.09.04.2.07.33.1.13.03.29.05.47.05.16 0 .3-.02.43-.05.13-.03.24-.08.33-.16.09-.07.16-.16.21-.27.05-.11.07-.24.07-.39 0-.13-.02-.25-.06-.35-.04-.1-.1-.19-.19-.26-.09-.07-.2-.12-.34-.16-.14-.04-.31-.05-.5-.05-.16 0-.3.01-.43.02-.13.02-.25.02-.36.02-.08 0-.13-.02-.17-.06-.03-.04-.05-.11-.05-.22v-2.28c0-.11.02-.19.06-.23.04-.05.11-.07.2-.07h2.49c.02 0 .05.01.07.02.02.02.04.04.05.08.01.04.03.08.03.14.01.06.01.13.01.21 0 .16-.01.28-.04.35-.03.07-.07.11-.12.11h-1.87v1.12c.09-.01.19-.02.28-.02.09 0 .19 0 .29 0 .28 0 .54.03.76.1.22.07.41.16.56.29.15.13.26.29.34.48C52.77 51.49 52.81 51.71 52.81 51.96zM40.8 58.95c0 .27-.04.51-.12.74-.08.23-.2.42-.36.58-.16.16-.35.29-.58.39-.23.09-.49.14-.8.14-.24 0-.46-.03-.64-.08-.18-.06-.34-.14-.47-.24s-.24-.23-.32-.38c-.08-.15-.15-.32-.2-.5-.05-.19-.08-.39-.1-.61-.02-.22-.03-.45-.03-.7 0-.21.01-.42.03-.65.02-.22.06-.44.12-.66.06-.22.14-.42.25-.62.11-.2.24-.37.41-.52.17-.15.37-.26.6-.35.24-.09.52-.13.84-.13.1 0 .21.01.31.02.1.01.2.03.29.05.09.02.16.04.23.06.06.02.1.05.12.06.02.02.04.04.05.06.01.02.02.05.03.07.01.03.01.06.01.1s0 .08 0 .14c0 .08 0 .15-.01.21 0 .06-.01.1-.02.13s-.03.05-.04.07c-.02.01-.04.02-.07.02-.03 0-.07-.01-.13-.03-.05-.02-.11-.04-.19-.06-.07-.02-.16-.04-.26-.06-.1-.02-.21-.02-.34-.02-.22 0-.4.04-.56.12-.15.08-.27.19-.37.33-.09.14-.16.3-.21.48-.04.18-.07.38-.07.58.06-.04.13-.08.2-.11.08-.04.16-.07.25-.1.09-.03.19-.05.29-.07.11-.02.22-.03.34-.03.26 0 .49.04.68.11.19.07.34.18.46.31.12.14.21.3.27.49C40.77 58.5 40.8 58.71 40.8 58.95zM39.75 59.05c0-.14-.01-.26-.04-.36-.02-.1-.06-.19-.12-.26-.05-.07-.13-.13-.22-.16-.09-.04-.2-.05-.32-.05-.08 0-.15.01-.22.02-.07.01-.14.03-.22.06-.07.02-.14.05-.2.09-.07.03-.13.07-.18.11 0 .29.02.53.05.72.03.19.08.35.14.46.06.11.14.19.24.24.1.05.21.07.33.07.12 0 .23-.02.33-.07.09-.05.17-.11.23-.19.06-.08.11-.18.14-.29C39.73 59.3 39.75 59.18 39.75 59.05zM26.79 55.89c0 .08 0 .15-.01.2-.01.06-.01.11-.02.16-.01.05-.02.1-.04.14-.02.04-.04.09-.06.14l-1.73 4c-.02.04-.04.06-.06.09-.03.02-.06.04-.11.05-.05.01-.1.02-.18.02-.07 0-.16.01-.27.01-.14 0-.26 0-.34-.01-.08-.01-.15-.02-.18-.04-.04-.02-.06-.05-.06-.08 0-.03.01-.07.03-.12l1.86-4.1h-2.21c-.06 0-.1-.04-.13-.11-.03-.07-.04-.19-.04-.35 0-.08 0-.15.01-.21.01-.06.02-.11.03-.14.01-.04.03-.06.05-.08.02-.02.04-.02.07-.02h3.12c.05 0 .09 0 .12.01.03.01.06.03.08.06.02.03.03.08.04.14C26.78 55.71 26.79 55.79 26.79 55.89zM14.77 52.31c0 .24-.04.45-.12.64-.08.19-.2.34-.37.47-.16.13-.36.23-.6.29-.24.07-.51.1-.82.1-.3 0-.56-.03-.78-.09-.22-.06-.41-.15-.56-.26-.15-.11-.27-.26-.34-.43-.08-.17-.11-.36-.11-.58 0-.15.02-.29.07-.42.04-.13.11-.25.2-.37.09-.11.2-.22.33-.32.13-.1.28-.19.45-.28-.14-.08-.26-.16-.37-.25-.11-.09-.21-.18-.28-.29s-.14-.22-.18-.34c-.04-.12-.06-.26-.06-.41 0-.21.04-.4.11-.57.07-.17.19-.32.33-.45.15-.13.33-.22.55-.29s.48-.1.77-.1c.29 0 .54.03.74.09.21.06.38.15.51.26.13.11.23.25.29.41.06.16.1.33.1.53 0 .13-.02.25-.06.37-.04.12-.1.23-.18.34-.08.11-.17.21-.28.31-.11.1-.24.18-.38.26.16.09.31.18.44.28.13.1.24.2.33.31.09.11.16.23.2.36C14.74 52.02 14.77 52.16 14.77 52.31zM13.71 52.38c0-.1-.02-.19-.05-.27s-.09-.16-.16-.23c-.07-.07-.16-.14-.27-.21-.11-.07-.23-.14-.38-.21-.12.07-.23.14-.33.2-.09.07-.17.14-.24.21-.06.07-.11.15-.14.24s-.05.17-.05.27c0 .21.07.37.2.48.14.11.34.17.61.17.27 0 .46-.06.59-.17C13.65 52.74 13.71 52.58 13.71 52.38zM13.59 49.76c0-.09-.01-.18-.04-.26-.03-.08-.07-.14-.13-.19-.06-.05-.13-.09-.22-.12s-.19-.04-.3-.04c-.23 0-.4.05-.51.16-.11.1-.17.25-.17.43 0 .09.01.17.04.24.03.07.07.14.13.21.06.07.14.13.23.19.09.06.21.13.34.2.2-.12.35-.24.46-.37C13.54 50.07 13.59 49.92 13.59 49.76zM7.73 38.75c0 .21-.01.43-.03.66-.02.23-.06.45-.12.67-.06.22-.14.43-.25.62-.11.2-.24.37-.41.52-.17.15-.37.26-.62.35-.24.09-.53.13-.86.13-.12 0-.23-.01-.35-.02-.11-.02-.22-.04-.31-.06-.09-.02-.18-.05-.24-.08-.07-.03-.11-.05-.14-.08-.03-.03-.05-.07-.06-.12-.01-.05-.02-.13-.02-.23 0-.09 0-.16.01-.22 0-.05.01-.1.02-.13.01-.03.03-.05.04-.06C4.4 40.7 4.42 40.7 4.44 40.7c.03 0 .08.01.14.03.06.02.13.04.22.06.09.02.18.05.29.06.11.02.23.03.36.03.23 0 .42-.04.58-.12.16-.08.28-.19.38-.33.1-.14.17-.3.22-.48.05-.18.07-.37.08-.57-.12.08-.27.15-.45.2-.18.06-.38.09-.6.09-.28 0-.52-.04-.71-.11-.19-.07-.35-.18-.47-.32-.12-.14-.21-.31-.27-.5-.06-.2-.08-.42-.08-.67 0-.26.04-.5.12-.72.08-.22.19-.41.35-.57.15-.16.35-.29.58-.38.23-.09.5-.13.8-.13.24 0 .46.03.64.09.18.06.34.14.47.24.13.11.24.23.33.38.09.15.16.32.21.5.05.18.09.38.11.6C7.72 38.29 7.73 38.52 7.73 38.75zM6.68 38.6c0-.29-.02-.53-.05-.73-.03-.19-.08-.35-.15-.47-.06-.12-.15-.2-.24-.25-.1-.05-.21-.07-.34-.07-.13 0-.24.02-.33.07-.09.04-.17.11-.23.19-.06.08-.11.18-.14.29C5.17 37.74 5.16 37.86 5.16 38c0 .14.01.27.04.38.03.11.07.2.12.27.06.07.13.13.22.16.09.04.2.05.32.05.16 0 .3-.02.44-.07C6.44 38.74 6.57 38.68 6.68 38.6zM5.48 27.02c0 .07 0 .13-.01.17-.01.05-.02.09-.03.11-.01.03-.03.05-.05.06-.02.01-.04.02-.06.02H2.7c-.02 0-.04-.01-.06-.02-.02-.01-.03-.03-.05-.06-.01-.03-.02-.07-.03-.11-.01-.05-.01-.11-.01-.17 0-.07 0-.13.01-.18.01-.05.02-.09.03-.12.01-.03.03-.05.05-.06.02-.01.04-.02.06-.02h.89v-3.1l-.76.42c-.06.03-.1.04-.14.05s-.06 0-.08-.02c-.02-.02-.03-.06-.04-.11-.01-.05-.01-.12-.01-.22 0-.06 0-.11 0-.15 0-.04.01-.07.02-.1.01-.03.02-.05.04-.07.02-.02.04-.04.07-.06l1.02-.66c.01-.01.03-.02.05-.02.02-.01.04-.01.07-.01.03 0 .07-.01.12-.01.05 0 .11 0 .19 0 .09 0 .17 0 .23.01.06 0 .1.01.13.02.03.01.05.02.06.03.01.01.01.03.01.06v3.93h.78c.02 0 .04.01.06.02.02.01.03.03.05.06s.02.07.03.12C5.47 26.89 5.48 26.95 5.48 27.02zM9.3 24.99c0 .38-.03.72-.09 1.03-.06.31-.16.57-.3.78-.14.22-.32.38-.54.5-.22.12-.49.17-.81.17-.33 0-.6-.06-.81-.17-.21-.11-.38-.27-.51-.48-.13-.21-.21-.47-.26-.77-.05-.3-.08-.65-.08-1.03 0-.38.03-.72.09-1.03.06-.31.16-.57.3-.78.14-.22.32-.38.54-.5.22-.12.49-.17.81-.17.33 0 .6.06.81.17.21.11.38.27.51.48.13.21.21.47.26.77C9.27 24.27 9.3 24.61 9.3 24.99zM8.32 25.04c0-.23-.01-.42-.02-.6-.01-.17-.03-.32-.06-.45-.03-.13-.06-.24-.1-.32-.04-.09-.08-.16-.14-.21-.05-.05-.12-.09-.18-.11-.07-.02-.14-.03-.23-.03-.14 0-.26.03-.36.1-.09.07-.17.17-.22.31-.06.14-.09.31-.12.52-.02.21-.03.45-.03.73 0 .34.01.62.04.84.03.22.07.4.13.53.06.13.13.22.22.28s.2.08.33.08c.1 0 .18-.02.25-.05.07-.03.14-.08.19-.14.06-.06.1-.14.14-.23.04-.09.07-.2.09-.32.02-.12.04-.26.05-.42S8.32 25.23 8.32 25.04zM12.58 14.82c0 .06 0 .12-.01.16-.01.05-.02.08-.03.11-.01.03-.03.05-.04.06-.02.01-.03.02-.06.02H9.96c-.02 0-.04-.01-.05-.02-.02-.01-.03-.03-.04-.06-.01-.03-.02-.06-.03-.11-.01-.05-.01-.1-.01-.16 0-.07 0-.12.01-.17.01-.05.02-.08.03-.11.01-.03.03-.05.04-.06.02-.01.03-.02.06-.02h.83v-2.92l-.72.4c-.05.03-.1.04-.13.05-.03.01-.06 0-.08-.02-.02-.02-.03-.05-.04-.1-.01-.05-.01-.12-.01-.2 0-.06 0-.1 0-.14 0-.04.01-.07.02-.09.01-.03.02-.05.04-.06.02-.02.04-.03.07-.05l.96-.62c.01-.01.03-.02.04-.02.02-.01.04-.01.07-.01.03 0 .06-.01.11-.01.05 0 .1 0 .17 0 .09 0 .16 0 .21.01.05 0 .1.01.12.02.03.01.05.02.06.03.01.01.01.03.01.05v3.7h.73c.02 0 .04.01.06.02.02.01.03.03.05.06.01.03.02.06.03.11C12.57 14.7 12.58 14.75 12.58 14.82zM16 14.82c0 .06 0 .12-.01.16-.01.05-.02.08-.03.11-.01.03-.03.05-.04.06-.02.01-.03.02-.06.02h-2.47c-.02 0-.04-.01-.05-.02-.02-.01-.03-.03-.04-.06-.01-.03-.02-.06-.03-.11-.01-.05-.01-.1-.01-.16 0-.07 0-.12.01-.17.01-.05.01-.08.03-.11.01-.03.03-.05.04-.06s.03-.02.06-.02h.83v-2.92l-.72.4c-.05.03-.1.04-.13.05-.03.01-.06 0-.08-.02-.02-.02-.03-.05-.04-.1s-.01-.12-.01-.2c0-.06 0-.1 0-.14 0-.04.01-.07.02-.09.01-.03.02-.05.04-.06.02-.02.04-.03.07-.05l.96-.62c.01-.01.03-.02.04-.02.02-.01.04-.01.07-.01.03 0 .06-.01.11-.01.05 0 .1 0 .17 0 .09 0 .16 0 .21.01.05 0 .1.01.12.02.03.01.05.02.06.03.01.01.01.03.01.05v3.7h.73c.02 0 .04.01.06.02.02.01.03.03.05.06.01.03.02.06.03.11C16 14.7 16 14.75 16 14.82z"/><g><path fill="#e4abbc" d="M24.53 8.19c0 .08 0 .14-.01.19-.01.05-.02.09-.03.13-.01.03-.03.05-.05.07-.02.01-.04.02-.06.02h-2.9c-.02 0-.04-.01-.06-.02-.02-.01-.04-.04-.05-.07-.01-.03-.03-.07-.03-.13-.01-.05-.01-.12-.01-.19 0-.08 0-.14.01-.2.01-.05.02-.1.03-.13.01-.03.03-.06.05-.07.02-.01.04-.02.07-.02h.98V4.35l-.84.47c-.06.03-.11.05-.15.05-.04.01-.07 0-.09-.02-.02-.02-.04-.06-.05-.12C21.31 4.68 21.3 4.6 21.3 4.49c0-.06 0-.12 0-.16 0-.04.01-.08.02-.11.01-.03.03-.05.04-.07.02-.02.04-.04.08-.06l1.13-.73c.01-.01.03-.02.05-.03s.05-.01.08-.02c.03 0 .08-.01.13-.01.05 0 .12 0 .2 0 .1 0 .19 0 .25.01.06 0 .11.01.14.02.03.01.05.02.06.04.01.02.02.04.02.06v4.34h.86c.02 0 .05.01.07.02.02.01.04.04.05.07.01.03.03.08.03.13C24.53 8.04 24.53 8.11 24.53 8.19zM28.72 8.16c0 .08 0 .15-.01.2-.01.06-.02.1-.03.14-.01.04-.03.06-.05.08-.02.01-.05.02-.07.02h-3.02c-.06 0-.11-.01-.15-.02-.04-.01-.08-.03-.11-.06-.03-.03-.05-.08-.06-.14-.01-.06-.02-.14-.02-.23 0-.09 0-.17.01-.23.01-.06.02-.12.04-.17.02-.05.05-.1.08-.15.03-.05.08-.1.13-.16l.91-.97c.18-.19.33-.36.44-.52.11-.16.2-.3.26-.43.06-.13.1-.25.13-.36.02-.11.03-.21.03-.31 0-.09-.01-.17-.04-.25-.03-.08-.07-.15-.13-.21-.06-.06-.13-.11-.21-.14-.08-.03-.18-.05-.3-.05-.16 0-.3.02-.42.06-.12.04-.23.09-.32.14-.09.05-.17.1-.23.14-.06.04-.11.06-.15.06-.02 0-.05-.01-.06-.02-.02-.02-.03-.04-.04-.08-.01-.04-.02-.09-.03-.15C25.3 4.29 25.3 4.21 25.3 4.12c0-.06 0-.11.01-.16 0-.04.01-.08.02-.11.01-.03.02-.06.03-.08.01-.02.04-.05.07-.08.03-.03.1-.07.19-.12.09-.05.2-.1.33-.15.13-.05.28-.09.44-.12.16-.03.33-.05.5-.05.27 0 .51.03.72.1.2.07.37.16.51.29.14.12.24.27.3.44.07.17.1.35.1.55 0 .17-.02.34-.05.5-.03.16-.1.34-.2.53-.1.19-.25.4-.43.63-.19.23-.43.5-.74.81l-.61.63h2.07c.03 0 .05.01.08.02.02.02.04.04.06.08.02.03.03.08.04.13C28.72 8.02 28.72 8.08 28.72 8.16z"/></g></g></g></svg>